PathFileType  4	(X/Y/Z) C:\Users\wagnerel85475\Documents\Thesis\opencap-core\Data\3375ffbc-daeb-4a43-b4f7-ac9899cd4c71\MarkerData\PreAugmentation
DataRate	CameraRate	NumFrames	NumMarkers	Units	OrigDataRate	OrigDataStartFrame	OrigNumFrames
60.0	60.0	9	20	m	60.0	264	301
Frame#	Time	Neck			RShoulder			RElbow			RWrist			LShoulder			LElbow			LWrist			midHip			RHip			RKnee			RAnkle			LHip			LKnee			LAnkle			LBigToe			LSmallToe			LHeel			RBigToe			RSmallToe			RHeel			
		X1	Y1	Z1	X2	Y2	Z2	X3	Y3	Z3	X4	Y4	Z4	X5	Y5	Z5	X6	Y6	Z6	X7	Y7	Z7	X8	Y8	Z8	X9	Y9	Z9	X10	Y10	Z10	X11	Y11	Z11	X12	Y12	Z12	X13	Y13	Z13	X14	Y14	Z14	X15	Y15	Z15	X16	Y16	Z16	X17	Y17	Z17	X18	Y18	Z18	X19	Y19	Z19	X20	Y20	Z20	

264	4.3833333	0.7795800	1.3634700	-0.1924500	0.7914700	1.3692900	-0.0042500	0.6994100	1.0665100	0.0749300	0.7850100	0.7797000	0.1625200	0.7851700	1.3569500	-0.3816100	0.6805100	1.0548600	-0.4446900	0.7846400	0.7594900	-0.4806400	0.8097600	0.8191300	-0.1828900	0.8197200	0.8232600	-0.0555900	0.7091500	0.3349600	-0.0537800	0.6570400	-0.1725100	-0.0066300	0.8244100	0.8213500	-0.3026800	0.7373700	0.3520000	-0.2804200	0.6594600	-0.1763700	-0.3286800	0.8779600	-0.2372000	-0.3579900	0.8129100	-0.2358200	-0.4009700	0.6124400	-0.2292100	-0.3334000	0.8734700	-0.2274000	0.0416100	0.8173300	-0.2250000	0.0791700	0.6179700	-0.2310300	-0.0204700
265	4.4000000	0.7793300	1.3634500	-0.1925700	0.7917700	1.3692500	-0.0041400	0.6993900	1.0666200	0.0749600	0.7851600	0.7798400	0.1624400	0.7853000	1.3533600	-0.3815700	0.6799100	1.0545600	-0.4448400	0.7844600	0.7593700	-0.4805300	0.8096600	0.8193400	-0.1828800	0.8195400	0.8234500	-0.0555400	0.7011900	0.3328800	-0.0498600	0.6572000	-0.1759900	-0.0072800	0.8242300	0.8217300	-0.3027700	0.7374400	0.3521800	-0.2803600	0.6597400	-0.1762600	-0.3285200	0.8783600	-0.2371000	-0.3577800	0.8047600	-0.2354800	-0.4039800	0.6123800	-0.2290900	-0.3333700	0.8735400	-0.2273200	0.0416400	0.8177100	-0.2249200	0.0789700	0.6178900	-0.2310700	-0.0205000
266	4.4166667	0.7795600	1.3634300	-0.1924700	0.7914000	1.3692600	-0.0042700	0.6993700	1.0665100	0.0749600	0.7849400	0.7796800	0.1625400	0.7853700	1.3531200	-0.3815500	0.6804300	1.0547200	-0.4447200	0.7845600	0.7594800	-0.4806500	0.8098300	0.8191700	-0.1829100	0.8197600	0.8232800	-0.0555900	0.7009300	0.3330600	-0.0496900	0.6569500	-0.1725800	-0.0066500	0.8245200	0.8213400	-0.3027000	0.7373100	0.3521600	-0.2804300	0.6595100	-0.1763400	-0.3286600	0.8778800	-0.2337800	-0.3573800	0.8124300	-0.2326500	-0.4003500	0.6127000	-0.2290700	-0.3332900	0.8734500	-0.2274300	0.0416200	0.8172900	-0.2250500	0.0791800	0.6178700	-0.2310800	-0.0204900
267	4.4333333	0.7793700	1.3634400	-0.1925400	0.7917600	1.3692500	-0.0041200	0.6994700	1.0665800	0.0749300	0.7851000	0.7798200	0.1624600	0.7853600	1.3533600	-0.3815500	0.6799400	1.0545500	-0.4448300	0.7844000	0.7594300	-0.4805100	0.8097700	0.8193700	-0.1828900	0.8196200	0.8234900	-0.0555500	0.7012300	0.3328700	-0.0497800	0.6568100	-0.1724600	-0.0066400	0.8243200	0.8217700	-0.3027500	0.7374200	0.3521600	-0.2803800	0.6597100	-0.1762600	-0.3285300	0.8783700	-0.2337000	-0.3571500	0.8128900	-0.2325200	-0.4001100	0.6123300	-0.2291200	-0.3333900	0.8735300	-0.2273000	0.0416200	0.8176800	-0.2249200	0.0789600	0.6178500	-0.2310600	-0.0204900
268	4.4500000	0.7795300	1.3634400	-0.1924600	0.7913900	1.3692600	-0.0042400	0.6994700	1.0665200	0.0749400	0.7849200	0.7796800	0.1625300	0.7853900	1.3531200	-0.3815600	0.6804300	1.0547500	-0.4447200	0.7845200	0.7594800	-0.4806400	0.8098500	0.8192200	-0.1829300	0.8198000	0.8233000	-0.0556100	0.7009300	0.3330300	-0.0496500	0.6569400	-0.1725500	-0.0066500	0.8245000	0.8214200	-0.3027200	0.7373200	0.3521300	-0.2804500	0.6595000	-0.1763200	-0.3286500	0.8778900	-0.2337900	-0.3573900	0.8124300	-0.2326400	-0.4003500	0.6126400	-0.2290100	-0.3332800	0.8734700	-0.2274300	0.0416100	0.8173200	-0.2250500	0.0791600	0.6178600	-0.2310600	-0.0204800
269	4.4666667	0.7793900	1.3634600	-0.1925400	0.7917600	1.3692500	-0.0041200	0.6994500	1.0666000	0.0749400	0.7850500	0.7798400	0.1624600	0.7853700	1.3533900	-0.3815500	0.6798200	1.0543500	-0.4449600	0.7843800	0.7593600	-0.4805000	0.8098100	0.8194000	-0.1829000	0.8196400	0.8235100	-0.0555500	0.7011300	0.3328300	-0.0498400	0.6572500	-0.1759600	-0.0072400	0.8243800	0.8218400	-0.3027500	0.7374400	0.3522000	-0.2803700	0.6684900	-0.1733100	-0.3246700	0.8783400	-0.2337000	-0.3571700	0.8047500	-0.2354700	-0.4039800	0.6212800	-0.2258600	-0.3294800	0.8736000	-0.2273000	0.0416400	0.8177600	-0.2249600	0.0789700	0.6179000	-0.2310400	-0.0204700
270	4.4833333	0.7795500	1.3634600	-0.1924500	0.7914000	1.3692800	-0.0042400	0.6994500	1.0666000	0.0749300	0.7848600	0.7796600	0.1625500	0.7854100	1.3531200	-0.3815700	0.6893400	1.0516400	-0.4482500	0.7845300	0.7595500	-0.4806400	0.8098100	0.8192900	-0.1829000	0.8200700	0.8263500	-0.0558400	0.7008200	0.3330500	-0.0497100	0.6571200	-0.1796400	-0.0066300	0.8244100	0.8215500	-0.3026600	0.7372700	0.3521100	-0.2803900	0.6683100	-0.1698300	-0.3242400	0.8778000	-0.2337800	-0.3574100	0.8040400	-0.2323400	-0.4036100	0.6216100	-0.2228100	-0.3288100	0.8735100	-0.2274700	0.0416300	0.8173700	-0.2250500	0.0791400	0.6179200	-0.2310700	-0.0204700
271	4.5000000	0.7793600	1.3634500	-0.1925400	0.7824800	1.3694700	-0.0075700	0.6994200	1.0666500	0.0749200	0.7850200	0.7798200	0.1624800	0.7853900	1.3501800	-0.3816400	0.6888800	1.0514700	-0.4483800	0.7844300	0.7595000	-0.4805000	0.8099400	0.8226700	-0.1831000	0.8199400	0.8265500	-0.0558000	0.7011500	0.3329300	-0.0498600	0.6572500	-0.1759700	-0.0072400	0.8242600	0.8219300	-0.3027200	0.7373600	0.3521300	-0.2803500	0.6685100	-0.1697600	-0.3241200	0.8782600	-0.2336800	-0.3571700	0.8044800	-0.2322300	-0.4033800	0.6212900	-0.2257900	-0.3295200	0.8735700	-0.2273300	0.0416300	0.8177000	-0.2249300	0.0789600	0.6179300	-0.2310600	-0.0204800
272	4.5166667	0.7795100	1.3634400	-0.1924600	0.7821500	1.3694800	-0.0076700	0.6994200	1.0665600	0.0749300	0.7848300	0.7796100	0.1625300	0.7854300	1.3531100	-0.3815800	0.6803500	1.0545700	-0.4448600	0.7845000	0.7595700	-0.4806300	0.8099400	0.8225200	-0.1830900	0.8200500	0.8263200	-0.0558200	0.7009000	0.3331000	-0.0497200	0.6573800	-0.1760900	-0.0072500	0.8243400	0.8215200	-0.3026700	0.7372700	0.3520300	-0.2804000	0.6683900	-0.1733400	-0.3247800	0.8778100	-0.2337900	-0.3574000	0.8040600	-0.2323400	-0.4036100	0.6216200	-0.2257300	-0.3294000	0.8735200	-0.2274600	0.0416300	0.8173700	-0.2250400	0.0791500	0.6179200	-0.2310700	-0.0204700
